#Mesh

g mesh

v 4.000 0.000 0.000
v -4.000 0.000 0.000
v 4.000 2.000 0.000
v -4.000 2.000 0.000
v 4.000 2.000 2.000
v -4.000 2.000 2.000
v 4.000 0.000 0.000
v 4.000 2.000 0.000
v 4.000 2.000 2.000
v -4.000 0.000 0.000
v -4.000 2.000 0.000
v -4.000 2.000 2.000
v 4.000 0.000 0.000
v -4.000 0.000 0.000
v 4.000 2.000 2.000
v -4.000 2.000 2.000
v 4.000 2.000 2.000
v -4.000 2.000 2.000
v 4.000 4.000 2.000
v -4.000 4.000 2.000
v 4.000 4.000 4.000
v -4.000 4.000 4.000
v 4.000 2.000 2.000
v 4.000 4.000 2.000
v 4.000 4.000 4.000
v -4.000 2.000 2.000
v -4.000 4.000 2.000
v -4.000 4.000 4.000
v 4.000 2.000 2.000
v -4.000 2.000 2.000
v 4.000 4.000 4.000
v -4.000 4.000 4.000
v 4.000 4.000 4.000
v -4.000 4.000 4.000
v 4.000 6.000 4.000
v -4.000 6.000 4.000
v 4.000 6.000 6.000
v -4.000 6.000 6.000
v 4.000 4.000 4.000
v 4.000 6.000 4.000
v 4.000 6.000 6.000
v -4.000 4.000 4.000
v -4.000 6.000 4.000
v -4.000 6.000 6.000
v 4.000 4.000 4.000
v -4.000 4.000 4.000
v 4.000 6.000 6.000
v -4.000 6.000 6.000
v 4.000 6.000 6.000
v -4.000 6.000 6.000
v 4.000 8.000 6.000
v -4.000 8.000 6.000
v 4.000 8.000 8.000
v -4.000 8.000 8.000
v 4.000 6.000 6.000
v 4.000 8.000 6.000
v 4.000 8.000 8.000
v -4.000 6.000 6.000
v -4.000 8.000 6.000
v -4.000 8.000 8.000
v 4.000 6.000 6.000
v -4.000 6.000 6.000
v 4.000 8.000 8.000
v -4.000 8.000 8.000
v 4.000 8.000 8.000
v -4.000 8.000 8.000
v 4.000 10.000 8.000
v -4.000 10.000 8.000
v 4.000 10.000 10.000
v -4.000 10.000 10.000
v 4.000 8.000 8.000
v 4.000 10.000 8.000
v 4.000 10.000 10.000
v -4.000 8.000 8.000
v -4.000 10.000 8.000
v -4.000 10.000 10.000
v 4.000 8.000 8.000
v -4.000 8.000 8.000
v 4.000 10.000 10.000
v -4.000 10.000 10.000

vt 1.000 0.000
vt 0.000 0.000
vt 1.000 0.500
vt 0.000 0.500
vt 1.000 1.000
vt 0.000 1.000
vt 1.000 0.000
vt 1.000 1.000
vt 0.000 1.000
vt 0.000 0.000
vt 0.000 1.000
vt 1.000 1.000
vt 0.000 0.000
vt 1.000 0.000
vt 0.000 1.000
vt 1.000 1.000
vt 1.000 0.000
vt 0.000 0.000
vt 1.000 0.500
vt 0.000 0.500
vt 1.000 1.000
vt 0.000 1.000
vt 1.000 0.000
vt 1.000 1.000
vt 0.000 1.000
vt 0.000 0.000
vt 0.000 1.000
vt 1.000 1.000
vt 0.000 0.000
vt 1.000 0.000
vt 0.000 1.000
vt 1.000 1.000
vt 1.000 0.000
vt 0.000 0.000
vt 1.000 0.500
vt 0.000 0.500
vt 1.000 1.000
vt 0.000 1.000
vt 1.000 0.000
vt 1.000 1.000
vt 0.000 1.000
vt 0.000 0.000
vt 0.000 1.000
vt 1.000 1.000
vt 0.000 0.000
vt 1.000 0.000
vt 0.000 1.000
vt 1.000 1.000
vt 1.000 0.000
vt 0.000 0.000
vt 1.000 0.500
vt 0.000 0.500
vt 1.000 1.000
vt 0.000 1.000
vt 1.000 0.000
vt 1.000 1.000
vt 0.000 1.000
vt 0.000 0.000
vt 0.000 1.000
vt 1.000 1.000
vt 0.000 0.000
vt 1.000 0.000
vt 0.000 1.000
vt 1.000 1.000
vt 1.000 0.000
vt 0.000 0.000
vt 1.000 0.500
vt 0.000 0.500
vt 1.000 1.000
vt 0.000 1.000
vt 1.000 0.000
vt 1.000 1.000
vt 0.000 1.000
vt 0.000 0.000
vt 0.000 1.000
vt 1.000 1.000
vt 0.000 0.000
vt 1.000 0.000
vt 0.000 1.000
vt 1.000 1.000

vn 0.000 0.000 -1.000
vn 0.000 0.000 -1.000
vn 0.000 0.707 -0.707
vn 0.000 0.707 -0.707
vn 0.000 1.000 0.000
vn 0.000 1.000 0.000
vn 1.000 0.000 0.000
vn 1.000 0.000 0.000
vn 1.000 0.000 0.000
vn -1.000 0.000 0.000
vn -1.000 0.000 0.000
vn -1.000 0.000 0.000
vn 0.000 -0.707 0.707
vn 0.000 -0.707 0.707
vn 0.000 -0.707 0.707
vn 0.000 -0.707 0.707
vn 0.000 0.000 -1.000
vn 0.000 0.000 -1.000
vn 0.000 0.707 -0.707
vn 0.000 0.707 -0.707
vn 0.000 1.000 0.000
vn 0.000 1.000 0.000
vn 1.000 0.000 0.000
vn 1.000 0.000 0.000
vn 1.000 0.000 0.000
vn -1.000 0.000 0.000
vn -1.000 0.000 0.000
vn -1.000 0.000 0.000
vn 0.000 -0.707 0.707
vn 0.000 -0.707 0.707
vn 0.000 -0.707 0.707
vn 0.000 -0.707 0.707
vn 0.000 0.000 -1.000
vn 0.000 0.000 -1.000
vn 0.000 0.707 -0.707
vn 0.000 0.707 -0.707
vn 0.000 1.000 0.000
vn 0.000 1.000 0.000
vn 1.000 0.000 0.000
vn 1.000 0.000 0.000
vn 1.000 0.000 0.000
vn -1.000 0.000 0.000
vn -1.000 0.000 0.000
vn -1.000 0.000 0.000
vn 0.000 -0.707 0.707
vn 0.000 -0.707 0.707
vn 0.000 -0.707 0.707
vn 0.000 -0.707 0.707
vn 0.000 0.000 -1.000
vn 0.000 0.000 -1.000
vn 0.000 0.707 -0.707
vn 0.000 0.707 -0.707
vn 0.000 1.000 0.000
vn 0.000 1.000 0.000
vn 1.000 0.000 0.000
vn 1.000 0.000 0.000
vn 1.000 0.000 0.000
vn -1.000 0.000 0.000
vn -1.000 0.000 0.000
vn -1.000 0.000 0.000
vn 0.000 -0.707 0.707
vn 0.000 -0.707 0.707
vn 0.000 -0.707 0.707
vn 0.000 -0.707 0.707
vn 0.000 0.000 -1.000
vn 0.000 0.000 -1.000
vn 0.000 0.707 -0.707
vn 0.000 0.707 -0.707
vn 0.000 1.000 0.000
vn 0.000 1.000 0.000
vn 1.000 0.000 0.000
vn 1.000 0.000 0.000
vn 1.000 0.000 0.000
vn -1.000 0.000 0.000
vn -1.000 0.000 0.000
vn -1.000 0.000 0.000
vn 0.000 -0.707 0.707
vn 0.000 -0.707 0.707
vn 0.000 -0.707 0.707
vn 0.000 -0.707 0.707

f 6/6/6 3/3/3 4/4/4
f 3/3/3 6/6/6 5/5/5
f 3/3/3 2/2/2 4/4/4
f 3/3/3 1/1/1 2/2/2
f 8/8/8 9/9/9 7/7/7
f 10/10/10 12/12/12 11/11/11
f 15/15/15 14/14/14 13/13/13
f 15/15/15 16/16/16 14/14/14
f 22/22/22 19/19/19 20/20/20
f 19/19/19 22/22/22 21/21/21
f 19/19/19 18/18/18 20/20/20
f 19/19/19 17/17/17 18/18/18
f 24/24/24 25/25/25 23/23/23
f 26/26/26 28/28/28 27/27/27
f 31/31/31 30/30/30 29/29/29
f 31/31/31 32/32/32 30/30/30
f 38/38/38 35/35/35 36/36/36
f 35/35/35 38/38/38 37/37/37
f 35/35/35 34/34/34 36/36/36
f 35/35/35 33/33/33 34/34/34
f 40/40/40 41/41/41 39/39/39
f 42/42/42 44/44/44 43/43/43
f 47/47/47 46/46/46 45/45/45
f 47/47/47 48/48/48 46/46/46
f 54/54/54 51/51/51 52/52/52
f 51/51/51 54/54/54 53/53/53
f 51/51/51 50/50/50 52/52/52
f 51/51/51 49/49/49 50/50/50
f 56/56/56 57/57/57 55/55/55
f 58/58/58 60/60/60 59/59/59
f 63/63/63 62/62/62 61/61/61
f 63/63/63 64/64/64 62/62/62
f 70/70/70 67/67/67 68/68/68
f 67/67/67 70/70/70 69/69/69
f 67/67/67 66/66/66 68/68/68
f 67/67/67 65/65/65 66/66/66
f 72/72/72 73/73/73 71/71/71
f 74/74/74 76/76/76 75/75/75
f 79/79/79 78/78/78 77/77/77
f 79/79/79 80/80/80 78/78/78
